<?xml version="1.0" standalone="no"?>
<!DOCTYPE svg PUBLIC "-//W3C//DTD SVG 20010904//EN"
 "http://www.w3.org/TR/2001/REC-SVG-20010904/DTD/svg10.dtd">
<svg version="1.0" xmlns="http://www.w3.org/2000/svg"
 width="512.000000pt" height="512.000000pt" viewBox="0 0 512.000000 512.000000"
 preserveAspectRatio="xMidYMid meet">
<metadata>
Created by potrace 1.11, written by Peter Selinger 2001-2013
</metadata>
<g transform="translate(0.000000,512.000000) scale(0.100000,-0.100000)"
fill="#000000" stroke="none">
<path d="M2290 3677 c-88 -42 -95 -170 -12 -232 25 -18 45 -19 277 -21 275 -1
293 2 339 57 25 30 28 39 24 88 -4 49 -9 59 -43 88 -33 28 -46 33 -94 34 -404
5 -452 4 -491 -14z"/>
<path d="M1965 3050 c-151 -6 -176 -12 -222 -58 -65 -65 -82 -152 -45 -235 24
-54 54 -83 109 -108 39 -18 76 -19 758 -19 681 1 719 1 754 19 77 40 122 109
122 189 1 85 -43 157 -118 192 -44 21 -55 21 -632 23 -322 1 -649 0 -726 -3z"/>
<path d="M1040 2179 c-215 -76 -320 -327 -221 -531 49 -100 133 -172 244 -208
28 -9 182 -12 579 -13 l541 -2 0 -712 0 -713 387 0 387 0 1 698 c0 383 1 704
1 713 1 14 53 16 535 17 376 0 546 4 577 12 178 48 295 210 285 392 -2 36 -10
84 -16 105 -34 104 -134 204 -241 243 -52 19 -98 19 -1529 19 -1435 -1 -1477
-1 -1530 -20z"/>
</g>
</svg>
