<?xml version="1.0" encoding="UTF-8"?>
<!DOCTYPE svg PUBLIC "-//W3C//DTD SVG 1.1//EN" "http://www.w3.org/Graphics/SVG/1.1/DTD/svg11.dtd">
<svg version="1.2" width="158.03mm" height="34.63mm" viewBox="2399 3949 15803 3463" preserveAspectRatio="xMidYMid" fill-rule="evenodd" stroke-width="28.222" stroke-linejoin="round" xmlns="http://www.w3.org/2000/svg" xmlns:ooo="http://xml.openoffice.org/svg/export" xmlns:xlink="http://www.w3.org/1999/xlink" xmlns:presentation="http://sun.com/xmlns/staroffice/presentation" xmlns:smil="http://www.w3.org/2001/SMIL20/" xmlns:anim="urn:oasis:names:tc:opendocument:xmlns:animation:1.0" xml:space="preserve">
 <defs class="ClipPathGroup">
  <clipPath id="presentation_clip_path" clipPathUnits="userSpaceOnUse">
   <rect x="2399" y="3949" width="15803" height="3463"/>
  </clipPath>
  <clipPath id="presentation_clip_path_shrink" clipPathUnits="userSpaceOnUse">
   <rect x="2414" y="3952" width="15772" height="3457"/>
  </clipPath>
 </defs>
 <defs class="TextShapeIndex">
  <g ooo:slide="id1" ooo:id-list="id3 id4 id5"/>
 </defs>
 <defs class="EmbeddedBulletChars">
  <g id="bullet-char-template-57356" transform="scale(0.00048828125,-0.00048828125)">
   <path d="M 580,1141 L 1163,571 580,0 -4,571 580,1141 Z"/>
  </g>
  <g id="bullet-char-template-57354" transform="scale(0.00048828125,-0.00048828125)">
   <path d="M 8,1128 L 1137,1128 1137,0 8,0 8,1128 Z"/>
  </g>
  <g id="bullet-char-template-10146" transform="scale(0.00048828125,-0.00048828125)">
   <path d="M 174,0 L 602,739 174,1481 1456,739 174,0 Z M 1358,739 L 309,1346 659,739 1358,739 Z"/>
  </g>
  <g id="bullet-char-template-10132" transform="scale(0.00048828125,-0.00048828125)">
   <path d="M 2015,739 L 1276,0 717,0 1260,543 174,543 174,936 1260,936 717,1481 1274,1481 2015,739 Z"/>
  </g>
  <g id="bullet-char-template-10007" transform="scale(0.00048828125,-0.00048828125)">
   <path d="M 0,-2 C -7,14 -16,27 -25,37 L 356,567 C 262,823 215,952 215,954 215,979 228,992 255,992 264,992 276,990 289,987 310,991 331,999 354,1012 L 381,999 492,748 772,1049 836,1024 860,1049 C 881,1039 901,1025 922,1006 886,937 835,863 770,784 769,783 710,716 594,584 L 774,223 C 774,196 753,168 711,139 L 727,119 C 717,90 699,76 672,76 641,76 570,178 457,381 L 164,-76 C 142,-110 111,-127 72,-127 30,-127 9,-110 8,-76 1,-67 -2,-52 -2,-32 -2,-23 -1,-13 0,-2 Z"/>
  </g>
  <g id="bullet-char-template-10004" transform="scale(0.00048828125,-0.00048828125)">
   <path d="M 285,-33 C 182,-33 111,30 74,156 52,228 41,333 41,471 41,549 55,616 82,672 116,743 169,778 240,778 293,778 328,747 346,684 L 369,508 C 377,444 397,411 428,410 L 1163,1116 C 1174,1127 1196,1133 1229,1133 1271,1133 1292,1118 1292,1087 L 1292,965 C 1292,929 1282,901 1262,881 L 442,47 C 390,-6 338,-33 285,-33 Z"/>
  </g>
  <g id="bullet-char-template-9679" transform="scale(0.00048828125,-0.00048828125)">
   <path d="M 813,0 C 632,0 489,54 383,161 276,268 223,411 223,592 223,773 276,916 383,1023 489,1130 632,1184 813,1184 992,1184 1136,1130 1245,1023 1353,916 1407,772 1407,592 1407,412 1353,268 1245,161 1136,54 992,0 813,0 Z"/>
  </g>
  <g id="bullet-char-template-8226" transform="scale(0.00048828125,-0.00048828125)">
   <path d="M 346,457 C 273,457 209,483 155,535 101,586 74,649 74,723 74,796 101,859 155,911 209,963 273,989 346,989 419,989 480,963 531,910 582,859 608,796 608,723 608,648 583,586 532,535 482,483 420,457 346,457 Z"/>
  </g>
  <g id="bullet-char-template-8211" transform="scale(0.00048828125,-0.00048828125)">
   <path d="M -4,459 L 1135,459 1135,606 -4,606 -4,459 Z"/>
  </g>
  <g id="bullet-char-template-61548" transform="scale(0.00048828125,-0.00048828125)">
   <path d="M 173,740 C 173,903 231,1043 346,1159 462,1274 601,1332 765,1332 928,1332 1067,1274 1183,1159 1299,1043 1357,903 1357,740 1357,577 1299,437 1183,322 1067,206 928,148 765,148 601,148 462,206 346,322 231,437 173,577 173,740 Z"/>
  </g>
 </defs>
 <defs class="TextEmbeddedBitmaps"/>
 <g class="SlideGroup">
  <g>
   <g id="container-id1">
    <g id="id1" class="Slide" clip-path="url(#presentation_clip_path)">
     <g class="Page">
      <g class="com.sun.star.drawing.ClosedBezierShape">
       <g id="id3">
        <rect class="BoundingBox" stroke="none" fill="none" x="2399" y="4962" width="15804" height="2452"/>
        <path fill="rgb(255,255,255)" stroke="none" d="M 4565,4962 L 2661,4962 C 2517,4962 2399,5079 2399,5224 2399,5369 2517,5486 2661,5486 L 3351,5486 3351,7150 C 3351,7294 3468,7412 3613,7412 3758,7412 3875,7294 3875,7150 L 3875,5486 4565,5486 C 4710,5486 4827,5369 4827,5224 4827,5079 4710,4962 4565,4962 Z M 11674,7292 L 12912,5366 C 12990,5244 12955,5082 12833,5004 12712,4925 12550,4961 12471,5082 L 11454,6666 10436,5082 C 10388,5007 10305,4962 10216,4962 10127,4962 10044,5007 9996,5082 L 8978,6666 7961,5082 C 7881,4961 7719,4925 7598,5004 7476,5082 7441,5244 7519,5366 L 8758,7292 C 8806,7366 8889,7412 8978,7412 9067,7412 9150,7366 9198,7292 L 10216,5708 11234,7292 C 11282,7366 11365,7412 11454,7412 11543,7412 11626,7366 11674,7292 Z M 15690,7370 C 15811,7292 15846,7130 15768,7008 L 14530,5082 C 14482,5007 14399,4962 14310,4962 14221,4962 14138,5007 14090,5082 L 12852,7008 C 12774,7130 12809,7292 12930,7370 13052,7449 13214,7413 13292,7292 L 14310,5708 15328,7292 C 15378,7369 15462,7412 15548,7412 15597,7412 15646,7398 15690,7370 Z M 7501,7370 C 7622,7292 7657,7130 7579,7008 L 6341,5082 C 6293,5007 6210,4962 6121,4962 6032,4962 5949,5007 5901,5082 L 4663,7008 C 4584,7130 4620,7292 4741,7370 4863,7449 5025,7413 5103,7292 L 6121,5708 7139,7292 C 7189,7369 7273,7412 7359,7412 7408,7412 7457,7398 7501,7370 Z M 17940,7412 L 16640,7412 C 16495,7412 16378,7294 16378,7150 L 16378,5224 C 16378,5079 16495,4962 16640,4962 16784,4962 16902,5079 16902,5224 L 16902,6888 17940,6888 C 18084,6888 18202,7005 18202,7150 18202,7294 18084,7412 17940,7412 Z"/>
       </g>
      </g>
      <g class="com.sun.star.drawing.ClosedBezierShape">
       <g id="id4">
        <rect class="BoundingBox" stroke="none" fill="none" x="3008" y="4385" width="1199" height="286"/>
        <path fill="rgb(255,77,0)" stroke="none" d="M 4063,4670 L 3151,4670 C 3072,4670 3009,4606 3009,4528 3009,4449 3072,4385 3151,4385 L 4063,4385 C 4142,4385 4206,4449 4206,4528 4206,4606 4142,4670 4063,4670 Z"/>
       </g>
      </g>
      <g class="com.sun.star.drawing.ClosedBezierShape">
       <g id="id5">
        <rect class="BoundingBox" stroke="none" fill="none" x="3375" y="3949" width="479" height="184"/>
        <path fill="rgb(255,77,0)" stroke="none" d="M 3375,4040 C 3375,3990 3415,3949 3465,3949 L 3762,3949 C 3812,3949 3852,3990 3852,4040 3852,4090 3812,4131 3762,4131 L 3465,4131 C 3415,4131 3375,4090 3375,4040 Z"/>
       </g>
      </g>
     </g>
    </g>
   </g>
  </g>
 </g>
</svg>